<?xml version="1.0" standalone="no"?><!DOCTYPE svg PUBLIC "-//W3C//DTD SVG 1.1//EN" "http://www.w3.org/Graphics/SVG/1.1/DTD/svg11.dtd"><svg t="1580741657264" class="icon" viewBox="0 0 1025 1024" version="1.1" xmlns="http://www.w3.org/2000/svg" p-id="4790" xmlns:xlink="http://www.w3.org/1999/xlink" width="200.1953125" height="200"><defs><style type="text/css"></style></defs><path d="M155.287118 608l0 309.696c0 23.36 19.072 42.304 42.624 42.304l236.544 0 0-281.536 186.176 0 0 281.536 236.608 0c23.552 0 42.688-18.944 42.688-42.304l0-321.536-377.216-289.984-367.424 301.824zM1009.111118 435.84l-107.712-86.528 0-241.728c0-22.912-18.816-41.536-42.048-41.536l-91.648 0c-23.232 0-42.048 18.624-42.048 41.536l0 100.672-167.104-134.144c-18.944-15.232-59.392-11.008-70.976-2.112l-472.384 377.856c-16.96 12.992-20.224 37.376-7.232 54.4l23.552 30.784c12.992 16.96 37.248 20.16 54.208 7.104l436.864-349.44 416.384 334.4c16.768 12.864 40.832 9.728 53.696-7.104l23.36-30.464c12.928-16.768 9.856-40.768-6.912-53.696z" p-id="4791"></path></svg>