<?xml version="1.0" standalone="no"?><!DOCTYPE svg PUBLIC "-//W3C//DTD SVG 1.1//EN" "http://www.w3.org/Graphics/SVG/1.1/DTD/svg11.dtd"><svg t="1580741643777" class="icon" viewBox="0 0 1024 1024" version="1.1" xmlns="http://www.w3.org/2000/svg" p-id="4579" xmlns:xlink="http://www.w3.org/1999/xlink" width="200" height="200"><defs><style type="text/css"></style></defs><path d="M987.456 425.152H864V295.296a36.48 36.48 0 0 0-36.544-36.544H467.456L333.376 130.496A9.344 9.344 0 0 0 327.04 128H36.48A36.48 36.48 0 0 0 0 164.544v676.608a36.48 36.48 0 0 0 36.544 36.544h797.76a36.672 36.672 0 0 0 33.92-22.848L1021.44 475.52a36.48 36.48 0 0 0-33.92-50.304zM82.304 210.304h215.424l136.64 130.752h347.328v84.096H198.848a36.672 36.672 0 0 0-33.92 22.848l-82.624 204.8V210.304z m726.016 585.152H108.544l118.08-292.608h699.904L808.32 795.52z" p-id="4580"></path></svg>